<svg width="400" height="300" viewBox="0 0 400 300" fill="none" xmlns="http://www.w3.org/2000/svg">
  <defs>
    <linearGradient id="hotel4" x1="0%" y1="0%" x2="100%" y2="100%">
      <stop offset="0%" style="stop-color:#F0F0F8;stop-opacity:1" />
      <stop offset="100%" style="stop-color:#E0E0F0;stop-opacity:1" />
    </linearGradient>
  </defs>
  <rect width="400" height="300" fill="url(#hotel4)"/>
  <!-- 산 배경 -->
  <path d="M0 180 L100 120 L200 140 L300 100 L400 160 L400 300 L0 300 Z" fill="#8B8B8B" opacity="0.3"/>
  <!-- 스키 리조트 -->
  <rect x="120" y="160" width="160" height="80" rx="8" fill="#6B46C1" opacity="0.8"/>
  <!-- 지붕 -->
  <path d="M120 160 L200 140 L280 160 Z" fill="#8B5A3C"/>
  <!-- 창문들 -->
  <rect x="140" y="180" width="12" height="12" rx="2" fill="#FFCC33"/>
  <rect x="160" y="180" width="12" height="12" rx="2" fill="#FFCC33"/>
  <rect x="180" y="180" width="12" height="12" rx="2" fill="#FFCC33"/>
  <rect x="208" y="180" width="12" height="12" rx="2" fill="#FFCC33"/>
  <rect x="228" y="180" width="12" height="12" rx="2" fill="#FFCC33"/>
  <rect x="248" y="180" width="12" height="12" rx="2" fill="#FFCC33"/>
  <!-- 스키 로프트 -->
  <path d="M80 120 L320 60" stroke="#333" stroke-width="2"/>
  <circle cx="120" cy="105" r="4" fill="#333"/>
  <circle cx="200" cy="85" r="4" fill="#333"/>
  <circle cx="280" cy="75" r="4" fill="#333"/>
</svg>