<svg width="400" height="300" viewBox="0 0 400 300" fill="none" xmlns="http://www.w3.org/2000/svg">
  <defs>
    <linearGradient id="hotel1" x1="0%" y1="0%" x2="100%" y2="100%">
      <stop offset="0%" style="stop-color:#E6F3FF;stop-opacity:1" />
      <stop offset="100%" style="stop-color:#B6DFFF;stop-opacity:1" />
    </linearGradient>
  </defs>
  <rect width="400" height="300" fill="url(#hotel1)"/>
  <!-- 호텔 건물 -->
  <rect x="80" y="80" width="240" height="160" rx="8" fill="#1D8BFF" opacity="0.8"/>
  <!-- 창문들 -->
  <rect x="100" y="100" width="20" height="20" rx="2" fill="white"/>
  <rect x="130" y="100" width="20" height="20" rx="2" fill="white"/>
  <rect x="160" y="100" width="20" height="20" rx="2" fill="white"/>
  <rect x="190" y="100" width="20" height="20" rx="2" fill="white"/>
  <rect x="220" y="100" width="20" height="20" rx="2" fill="white"/>
  <rect x="250" y="100" width="20" height="20" rx="2" fill="white"/>
  <rect x="280" y="100" width="20" height="20" rx="2" fill="white"/>
  
  <rect x="100" y="130" width="20" height="20" rx="2" fill="white"/>
  <rect x="130" y="130" width="20" height="20" rx="2" fill="white"/>
  <rect x="160" y="130" width="20" height="20" rx="2" fill="white"/>
  <rect x="190" y="130" width="20" height="20" rx="2" fill="white"/>
  <rect x="220" y="130" width="20" height="20" rx="2" fill="white"/>
  <rect x="250" y="130" width="20" height="20" rx="2" fill="white"/>
  <rect x="280" y="130" width="20" height="20" rx="2" fill="white"/>
  
  <!-- 입구 -->
  <rect x="180" y="200" width="40" height="40" rx="4" fill="#0066CC"/>
  <text x="200" y="225" text-anchor="middle" fill="white" font-size="12" font-family="sans-serif">HOTEL</text>
</svg>