<svg width="400" height="300" viewBox="0 0 400 300" fill="none" xmlns="http://www.w3.org/2000/svg">
  <defs>
    <linearGradient id="hotel2" x1="0%" y1="0%" x2="100%" y2="100%">
      <stop offset="0%" style="stop-color:#FFF0E6;stop-opacity:1" />
      <stop offset="100%" style="stop-color:#FFE8D6;stop-opacity:1" />
    </linearGradient>
  </defs>
  <rect width="400" height="300" fill="url(#hotel2)"/>
  <!-- 리조트 건물 -->
  <rect x="60" y="60" width="280" height="180" rx="12" fill="#FF6B35" opacity="0.8"/>
  <!-- 야자수 -->
  <circle cx="100" cy="220" r="8" fill="#8B5A3C"/>
  <path d="M100 212 L95 200 M100 212 L105 200 M100 212 L90 205 M100 212 L110 205" stroke="#34C759" stroke-width="3"/>
  <circle cx="300" cy="220" r="8" fill="#8B5A3C"/>
  <path d="M300 212 L295 200 M300 212 L305 200 M300 212 L290 205 M300 212 L310 205" stroke="#34C759" stroke-width="3"/>
  <!-- 수영장 -->
  <ellipse cx="200" cy="180" rx="60" ry="20" fill="#4DA3FF" opacity="0.6"/>
  <!-- 창문 -->
  <rect x="80" y="80" width="240" height="60" rx="4" fill="white" opacity="0.8"/>
  <text x="200" y="115" text-anchor="middle" fill="#FF6B35" font-size="16" font-family="sans-serif" font-weight="bold">RESORT</text>
</svg>