<svg width="400" height="300" viewBox="0 0 400 300" fill="none" xmlns="http://www.w3.org/2000/svg">
  <rect width="400" height="300" fill="url(#grad1)"/>
  <rect x="50" y="100" width="300" height="150" fill="#2C3E50" opacity="0.9"/>
  <rect x="70" y="120" width="40" height="50" fill="#F39C12" opacity="0.8"/>
  <rect x="130" y="120" width="40" height="50" fill="#F39C12" opacity="0.8"/>
  <rect x="190" y="120" width="40" height="50" fill="#F39C12" opacity="0.8"/>
  <rect x="250" y="120" width="40" height="50" fill="#F39C12" opacity="0.8"/>
  <rect x="310" y="120" width="40" height="50" fill="#F39C12" opacity="0.8"/>
  <rect x="70" y="190" width="40" height="50" fill="#F39C12" opacity="0.8"/>
  <rect x="130" y="190" width="40" height="50" fill="#F39C12" opacity="0.8"/>
  <rect x="190" y="190" width="40" height="50" fill="#F39C12" opacity="0.8"/>
  <rect x="250" y="190" width="40" height="50" fill="#F39C12" opacity="0.8"/>
  <rect x="310" y="190" width="40" height="50" fill="#F39C12" opacity="0.8"/>
  <rect x="150" y="210" width="100" height="40" fill="#34495E"/>
  <circle cx="350" cy="50" r="30" fill="#FFA500" opacity="0.7"/>
  <text x="200" y="80" font-family="Arial" font-size="24" font-weight="bold" text-anchor="middle" fill="#2C3E50">Grand Hotel</text>
  <defs>
    <linearGradient id="grad1" x1="0%" y1="0%" x2="0%" y2="100%">
      <stop offset="0%" style="stop-color:#87CEEB;stop-opacity:1" />
      <stop offset="100%" style="stop-color:#98D8C8;stop-opacity:1" />
    </linearGradient>
  </defs>
</svg>