<svg width="400" height="300" viewBox="0 0 400 300" fill="none" xmlns="http://www.w3.org/2000/svg">
  <rect width="400" height="300" fill="url(#beach)"/>
  <rect x="100" y="80" width="200" height="170" fill="#1E3A8A" opacity="0.9"/>
  <rect x="120" y="100" width="30" height="40" fill="#60A5FA" opacity="0.9"/>
  <rect x="165" y="100" width="30" height="40" fill="#60A5FA" opacity="0.9"/>
  <rect x="210" y="100" width="30" height="40" fill="#60A5FA" opacity="0.9"/>
  <rect x="255" y="100" width="30" height="40" fill="#60A5FA" opacity="0.9"/>
  <rect x="120" y="155" width="30" height="40" fill="#60A5FA" opacity="0.9"/>
  <rect x="165" y="155" width="30" height="40" fill="#60A5FA" opacity="0.9"/>
  <rect x="210" y="155" width="30" height="40" fill="#60A5FA" opacity="0.9"/>
  <rect x="255" y="155" width="30" height="40" fill="#60A5FA" opacity="0.9"/>
  <rect x="120" y="210" width="30" height="40" fill="#60A5FA" opacity="0.9"/>
  <rect x="165" y="210" width="30" height="40" fill="#60A5FA" opacity="0.9"/>
  <rect x="210" y="210" width="30" height="40" fill="#60A5FA" opacity="0.9"/>
  <rect x="255" y="210" width="30" height="40" fill="#60A5FA" opacity="0.9"/>
  <ellipse cx="50" cy="260" r="30" ry="20" fill="#10B981" opacity="0.7"/>
  <ellipse cx="350" cy="260" r="30" ry="20" fill="#10B981" opacity="0.7"/>
  <text x="200" y="60" font-family="Arial" font-size="22" font-weight="bold" text-anchor="middle" fill="#1E3A8A">Ocean Resort</text>
  <defs>
    <linearGradient id="beach" x1="0%" y1="0%" x2="0%" y2="100%">
      <stop offset="0%" style="stop-color:#FED7AA;stop-opacity:1" />
      <stop offset="100%" style="stop-color:#92C5FD;stop-opacity:1" />
    </linearGradient>
  </defs>
</svg>